<?xml version="1.0" encoding="utf-8"?>
<!-- Generator: Adobe Illustrator 25.0.0, SVG Export Plug-In . SVG Version: 6.00 Build 0)  -->
<svg version="1.1" id="Capa_1" xmlns="http://www.w3.org/2000/svg" xmlns:xlink="http://www.w3.org/1999/xlink" x="0px" y="0px"
	 viewBox="0 0 512 512" style="enable-background:new 0 0 512 512;" xml:space="preserve">
<style type="text/css">
	.st0{fill:#68AA38;}
</style>
<g>
	<path class="st0" d="M391.3,267.9l-70.8-27.4H217.1l-0.8,0.8L121,267.9l-92.7-19L0.1,393.4l110.5,14.7c-2.7,9.2-0.4,19.6,6.9,26.9
		c5.1,5.2,12,8,19.2,8c6,0,11.7-1.9,16.3-5.5c1.3,4.1,3.5,7.9,6.7,11.1c5.1,5.2,12,8,19.2,8c4.2,0,8.3-1,12-2.8
		c1.2,3.4,3.1,6.5,5.7,9.2c4.6,4.6,10.7,7.1,17.2,7.1c6.5,0,12.6-2.5,17.2-7.1l1.2-1.2c1.2,2.9,2.9,5.6,5.3,8
		c4.6,4.6,10.7,7.1,17.2,7.1c6.5,0,12.6-2.5,17.2-7.1l0.3-0.3c5.6,1.8,11.4,2.8,17.1,2.8c11.5,0,22.9-3.6,32.4-10.6l75.3-47.5
		L510.8,393L483.7,249L391.3,267.9z M17.9,380.6l22.3-113.9l53.7,11L72.4,387.9L17.9,380.6z M145.3,424.3c-2.3,2.3-5.3,3.6-8.6,3.6
		s-6.3-1.3-8.6-3.6c-4.8-4.8-4.8-12.5,0-17.3l18.1-18.2c2.3-2.3,5.3-3.6,8.6-3.6s6.3,1.3,8.6,3.6c4.8,4.8,4.8,12.5,0,17.3
		L145.3,424.3z M194.9,430.5l-7.4,7.5c-2.3,2.3-5.3,3.6-8.6,3.6c-3.2,0-6.3-1.3-8.6-3.6c-4.8-4.8-4.8-12.5,0-17.3l18.1-18.2
		c2.3-2.3,5.3-3.6,8.6-3.6s6.3,1.3,8.6,3.6c4.4,4.4,4.7,11.2,1.1,16l-10.1,10.1C196,429.2,195.5,429.8,194.9,430.5z M242.6,430.1
		l-22.2,22.3c-1.7,1.8-4.1,2.7-6.5,2.7c-2.5,0-4.8-1-6.5-2.7c-3.3-3.3-3.6-8.4-1-12l10-10c0.6-0.6,1.2-1.3,1.8-2l11.5-11.5
		c1.7-1.8,4.1-2.7,6.5-2.7c2.5,0,4.8,1,6.5,2.7C246.2,420.5,246.2,426.4,242.6,430.1L242.6,430.1z M273.1,447.2l-12,12
		c-1.7,1.8-4.1,2.7-6.5,2.7c-2.5,0-4.8-1-6.5-2.7c-3.6-3.6-3.6-9.5,0-13.2l12-12c1.7-1.8,4.1-2.7,6.5-2.7c2.5,0,4.8,1,6.5,2.7
		C276.7,437.6,276.7,443.5,273.1,447.2z M313.4,449.1l-0.5,0.3c-8.3,6.1-18.5,8.7-28.4,7.5c8.7-9.5,8.4-24.4-0.7-33.6
		c-4.6-4.6-10.7-7.1-17.2-7.1c-2.4,0-4.8,0.4-7.1,1.1c-1.1-4-3.1-7.9-6.3-11c-4.6-4.6-10.7-7.1-17.2-7.1c-4.7,0-9.2,1.3-13,3.8
		c-1.3-4.1-3.5-7.9-6.7-11.1c-5.1-5.2-12-8-19.2-8c-6,0-11.7,1.9-16.3,5.5c-1.3-4.1-3.5-7.9-6.7-11.1c-5.1-5.2-12-8-19.2-8
		s-14.1,2.8-19.2,8l-15.9,15.9l-32.3-4.3l21.3-109.1l13,2.7l71.2-20L141,312.4l5.4,5.5c22.8,22.9,59.3,23.6,83,1.6l10.8-10.1
		c10.6,12.4,36,40.1,62.3,55.4c30.3,17.7,60.7,34.2,76.7,42.8L313.4,449.1z M395.3,399.2c-9.6-5-47.5-25.2-85.2-47.3
		c-31.3-18.3-63-57.7-63.3-58.1l-5.1-6.3l-22.6,20.9c-15.8,14.7-39.2,15.8-56.2,3.8l60.1-56.7h94.6l72.3,28l21.2-4.4l22,113
		L395.3,399.2z M448.1,389.4L426,276.1l45.7-9.4L493.2,381L448.1,389.4z"/>
	<path class="st0" d="M68.1,215.1l5.6-6.2c6.4-7.1,62.6-70.4,62.6-105.7c0-37.6-30.6-68.1-68.1-68.1S0,65.6,0,103.2
		c0,35.3,56.2,98.6,62.6,105.7L68.1,215.1z M68.1,50.1c29.3,0,53.1,23.8,53.1,53.1c0,22.6-34.3,67.4-53.1,89.3
		C49.4,170.6,15,125.8,15,103.2C15,73.9,38.9,50.1,68.1,50.1z"/>
	<path class="st0" d="M104.2,99.2c0-19.9-16.2-36.1-36.1-36.1S32.1,79.3,32.1,99.2s16.2,36.1,36.1,36.1S104.2,119.1,104.2,99.2z
		 M47.1,99.2c0-11.6,9.4-21,21-21s21,9.4,21,21s-9.4,21-21,21S47.1,110.8,47.1,99.2z"/>
	<path class="st0" d="M443.9,215.1l5.6-6.2c6.4-7.1,62.6-70.4,62.6-105.7c0-37.6-30.6-68.1-68.1-68.1s-68.1,30.6-68.1,68.1
		c0,35.3,56.2,98.6,62.6,105.7L443.9,215.1z M443.9,50.1c29.3,0,53.1,23.8,53.1,53.1c0,22.6-34.3,67.4-53.1,89.3
		c-18.8-21.9-53.1-66.7-53.1-89.3C390.8,73.9,414.6,50.1,443.9,50.1z"/>
	<path class="st0" d="M479.9,99.2c0-19.9-16.2-36.1-36.1-36.1s-36.1,16.2-36.1,36.1s16.2,36.1,36.1,36.1S479.9,119.1,479.9,99.2z
		 M422.8,99.2c0-11.6,9.4-21,21-21c11.6,0,21,9.4,21,21s-9.4,21-21,21C432.3,120.2,422.8,110.8,422.8,99.2z"/>
	<path class="st0" d="M388.8,195.4h15v15h-15V195.4z"/>
	<path class="st0" d="M107.2,195.4h15v15h-15V195.4z"/>
	<path class="st0" d="M137.3,195.4h236.5v15H137.3V195.4z"/>
</g>
</svg>
