<svg id="Solid" height="512" viewBox="0 0 512 512" width="512" xmlns="http://www.w3.org/2000/svg"><path d="m426.491 49.582 7.195 27.048-42.72 44.02-7.195-27.05zm-299.535 94.569a8 8 0 0 0 5.854-5.539c.019-.064.036-.129.054-.194l1.233-4.633 97.903 97.239v22.491a1.994 1.994 0 0 1 -.292-.239l-108.894-108.155zm153.044 46.378a64.41 64.41 0 0 1 11.762 6.261l-11.762 11.682zm23.289-5.188a80.361 80.361 0 0 0 -23.289-11.802v-41.274a118.649 118.649 0 0 1 51.907 24.653zm-26.418 84.369a18.241 18.241 0 0 0 2.01.111 17.95 17.95 0 0 0 12.686-5.193l27.255-27.069a64 64 0 1 1 -125.643 0l27.254 27.069a17.95 17.95 0 0 0 12.686 5.193 18.255 18.255 0 0 0 2.01-.111 23.99 23.99 0 0 0 41.742 0zm-44.871-61.238-11.762-11.682a64.179 64.179 0 0 1 11.762-6.264zm0-34.934a80.17 80.17 0 0 0 -23.29 11.8l-28.617-28.423a118.648 118.648 0 0 1 51.907-24.65zm-51.912 51.019a80 80 0 1 0 151.824 0l30.47-30.263a120 120 0 1 1 -212.764 0zm100.2 28.719a1.932 1.932 0 0 1 -.292.239v-22.491l97.9-97.239 1.233 4.633a8 8 0 0 0 5.712 5.684c.065.017.131.033.2.048l4.142.97zm19.828-148.546a8 8 0 0 0 3.884-6.859v-17.371a175.889 175.889 0 0 1 67.782 36.818l-28.47 28.276a134.567 134.567 0 0 0 -62.263-29.419zm-12.116-11.389-24 14.4v-61.341l24-14.4zm-32 36.53a7.991 7.991 0 0 0 3.941-1.039c.059-.033.117-.067.175-.1l3.884-2.332v131.471a8 8 0 0 1 -16 0v-131.471l3.884 2.33a7.988 7.988 0 0 0 4.116 1.141zm-32-97.871 24 14.4v61.341l-24-14.4zm-12.116 72.73 19.066 11.44a134.564 134.564 0 0 0 -62.262 29.42l-28.47-28.276a175.915 175.915 0 0 1 67.782-36.814v17.371a8 8 0 0 0 3.884 6.859zm-126.375-55.148 42.72 44.02-7.2 27.048-42.714-44.02zm-45.928 44.571 27.251-6.381 42.72 44.021-27.252 6.38zm116.045 384.847a2 2 0 0 1 -1.731 1h-56.906a2 2 0 0 1 -1.732-3l41-77.146a192.17 192.17 0 0 0 45.814 27.213zm260.785-2a2 2 0 0 1 -1.731 3h-56.907a2.006 2.006 0 0 1 -1.732-1l-26.38-51.821a192.2 192.2 0 0 0 45.855-27.143zm-160.411-51.129c-97.047 0-176-78.954-176-176a174.718 174.718 0 0 1 28.641-96.271l29.159 28.958a135.637 135.637 0 0 0 -17.8 67.313c0 74.99 61.01 136 136 136s136-61.01 136-136a135.64 135.64 0 0 0 -17.8-67.313l29.163-28.964a174.581 174.581 0 0 1 28.637 96.277c0 97.046-78.953 176-176 176zm146.448-294.078 42.72-44.02 27.251 6.38-42.72 44.02z"/></svg>