<?xml version="1.0" encoding="utf-8"?>
<!-- Generator: Adobe Illustrator 25.0.0, SVG Export Plug-In . SVG Version: 6.00 Build 0)  -->
<svg version="1.1" id="Camada_1" xmlns="http://www.w3.org/2000/svg" xmlns:xlink="http://www.w3.org/1999/xlink" x="0px" y="0px"
	 viewBox="0 0 512 512" style="enable-background:new 0 0 512 512;" xml:space="preserve">
<style type="text/css">
	.st0{fill:#F0C8A0;}
	.st1{fill:#68AA38;}
	.st2{fill:#467F19;}
	.st3{fill:#D2AA82;}
	.st4{fill:#FAB400;}
	.st5{fill:#C80A50;}
	.st6{fill:#C1895B;}
	.st7{fill:#CE9D6F;}
	.st8{fill:#0A5078;}
	.st9{fill:#A00028;}
</style>
<g id="Icons">
	<g>
		<path class="st0" d="M408,360c-6.6,0-12.6,2.7-17,7l-65,65H296c13.3,0,24-10.7,24-24s-10.7-24-24-24h-40l-13.3-13.3
			c-12-12-28.3-18.7-45.3-18.7h-11c-17,0-33.3,6.7-45.3,18.7L128,384H32v96h304c6.6,0,12.6-2.7,17-7l72-72c4.3-4.3,7-10.3,7-17
			C432,370.7,421.3,360,408,360L408,360z"/>
		<g>
			<path class="st1" d="M384,176v-32c0-4.4-3.6-8-8-8h-4.4c-3.7,0-6.7-2.5-7.7-6c-2.5-8.8-6-17.2-10.4-25c-1.8-3.2-1.4-7.1,1.2-9.7
				l3.1-3.1c3.1-3.1,3.1-8.2,0-11.3l-22.6-22.6c-3.1-3.1-8.2-3.1-11.3,0l-3.1,3.1c-2.6,2.6-6.5,3-9.7,1.2c-7.8-4.4-16.2-7.9-25-10.4
				c-3.5-1-6-4.1-6-7.7V40c0-4.4-3.6-8-8-8h-32c-4.4,0-8,3.6-8,8v4.4c0,3.7-2.5,6.7-6,7.7c-8.8,2.5-17.2,6-25,10.4
				c-3.2,1.8-7.1,1.4-9.7-1.2l-3.1-3.1c-3.1-3.1-8.2-3.1-11.3,0l-22.6,22.6c-3.1,3.1-3.1,8.2,0,11.3l3.1,3.1c2.6,2.6,3,6.5,1.2,9.7
				c-4.4,7.8-7.9,16.2-10.4,25c-1,3.5-4.1,6-7.7,6H136c-4.4,0-8,3.6-8,8v32c0,4.4,3.6,8,8,8h4.4c3.7,0,6.7,2.5,7.7,6
				c2.5,8.8,6,17.2,10.4,25c1.8,3.2,1.4,7.1-1.2,9.7l-3.1,3.1c-3.1,3.1-3.1,8.2,0,11.3l22.6,22.6c3.1,3.1,8.2,3.1,11.3,0l3.1-3.1
				c2.6-2.6,6.5-3,9.7-1.2c7.8,4.4,16.2,7.9,25,10.4c3.5,1,6,4.1,6,7.7v4.4c0,4.4,3.6,8,8,8h32c4.4,0,8-3.6,8-8v-4.4
				c0-3.7,2.5-6.7,6-7.7c8.8-2.5,17.2-6,25-10.4c3.2-1.8,7.1-1.4,9.7,1.2l3.1,3.1c3.1,3.1,8.2,3.1,11.3,0l22.6-22.6
				c3.1-3.1,3.1-8.2,0-11.3l-3.1-3.1c-2.6-2.6-3-6.5-1.2-9.7c4.4-7.8,7.9-16.2,10.4-25c1-3.5,4.1-6,7.7-6h4.4
				C380.4,184,384,180.4,384,176L384,176z"/>
		</g>
		<g>
			<circle class="st2" cx="256" cy="168" r="88"/>
		</g>
		<g>
			<path class="st1" d="M472.5,302.1l-9.3-5.4c0.5-2.8,0.8-5.8,0.8-8.8s-0.3-5.9-0.8-8.8l9.3-5.4c3.8-2.2,5.1-7.1,2.9-10.9l-8-13.9
				c-2.2-3.8-7.1-5.1-10.9-2.9l-4.7,2.7c-2.6,1.5-5.9,1.5-8.3-0.2c-2.2-1.6-4.6-2.9-7.1-4.1c-2.7-1.3-4.3-4.1-4.3-7.1V232
				c0-4.4-3.6-8-8-8h-16c-4.4,0-8,3.6-8,8v5.5c0,3-1.6,5.8-4.3,7.1c-2.5,1.2-4.9,2.5-7.1,4.1c-2.4,1.7-5.7,1.7-8.3,0.2l-4.7-2.7
				c-3.8-2.2-8.7-0.9-10.9,2.9l-8,13.9c-2.2,3.8-0.9,8.7,2.9,10.9l9.3,5.4c-0.5,2.8-0.8,5.8-0.8,8.8s0.3,5.9,0.8,8.8l-9.3,5.4
				c-3.8,2.2-5.1,7.1-2.9,10.9l8,13.9c2.2,3.8,7.1,5.1,10.9,2.9l4.7-2.7c2.6-1.5,5.9-1.5,8.3,0.2c2.2,1.6,4.6,2.9,7.1,4.1
				c2.7,1.3,4.3,4.1,4.3,7.1v5.5c0,4.4,3.6,8,8,8h16c4.4,0,8-3.6,8-8v-5.5c0-3,1.6-5.8,4.3-7.1c2.5-1.2,4.9-2.5,7.1-4.1
				c2.4-1.7,5.7-1.7,8.3-0.2l4.7,2.7c3.8,2.2,8.7,0.9,10.9-2.9l8-13.9C477.6,309.2,476.3,304.4,472.5,302.1z M416,320
				c-17.7,0-32-14.3-32-32s14.3-32,32-32s32,14.3,32,32S433.7,320,416,320z"/>
		</g>
		<g>
			<path class="st3" d="M228,432c-2.2,0-4,1.8-4,4s1.8,4,4,4h68c8,0,15.3-3.1,20.9-8H228z"/>
		</g>
		<g>
			<circle class="st4" cx="256" cy="160" r="88"/>
		</g>
		<g>
			<g>
				<path class="st5" d="M208,233.8c13.8,9,30.3,14.2,48,14.2s34.2-5.2,48-14.2V168h-96V233.8z"/>
			</g>
			<g>
				<path class="st6" d="M256,184c-8.8,0-16-7.2-16-16v-16h32v16C272,176.8,264.8,184,256,184z"/>
			</g>
			<g>
				<path class="st7" d="M264,160h-16c-13.3,0-24-10.7-24-24v-32c0-13.3,10.7-24,24-24h16c13.3,0,24,10.7,24,24v32
					C288,149.3,277.3,160,264,160z"/>
			</g>
			<g>
				<path class="st8" d="M248,80c-13.3,0-24,10.7-24,24v16c4.4,0,8-3.6,8-8s3.6-8,8-8h32c4.4,0,8,3.6,8,8s3.6,8,8,8v-16
					c0-13.3-10.7-24-24-24H248z"/>
			</g>
			<g>
				<path class="st3" d="M224,112c-4.4,0-8,3.6-8,8s3.6,8,8,8V112z"/>
			</g>
			<g>
				<path class="st3" d="M288,112c4.4,0,8,3.6,8,8s-3.6,8-8,8V112z"/>
			</g>
			<g>
				<path class="st9" d="M176.1,197c7,15,18.1,27.8,31.9,36.8V168C191.3,168,177.7,180.7,176.1,197z"/>
			</g>
			<g>
				<path class="st9" d="M304,233.8c13.8-9,24.9-21.7,31.9-36.8c-1.5-16.3-15.2-29-31.9-29V233.8z"/>
			</g>
		</g>
		<g>
			<path class="st1" d="M152.5,302.1l-9.3-5.4c0.5-2.8,0.8-5.8,0.8-8.8s-0.3-5.9-0.8-8.8l9.3-5.4c3.8-2.2,5.1-7.1,2.9-10.9l-8-13.9
				c-2.2-3.8-7.1-5.1-10.9-2.9l-4.7,2.7c-2.6,1.5-5.9,1.5-8.3-0.2c-2.2-1.6-4.6-2.9-7.1-4.1c-2.7-1.3-4.3-4.1-4.3-7.1V232
				c0-4.4-3.6-8-8-8H88c-4.4,0-8,3.6-8,8v5.5c0,3-1.6,5.8-4.3,7.1c-2.5,1.2-4.9,2.5-7.1,4.1c-2.4,1.7-5.7,1.7-8.3,0.2l-4.7-2.7
				c-3.8-2.2-8.7-0.9-10.9,2.9l-8,13.9c-2.2,3.8-0.9,8.7,2.9,10.9l9.3,5.4c-0.5,2.8-0.8,5.8-0.8,8.8s0.3,5.9,0.8,8.8l-9.3,5.4
				c-3.8,2.2-5.1,7.1-2.9,10.9l8,13.9c2.2,3.8,7.1,5.1,10.9,2.9l4.7-2.7c2.6-1.5,5.9-1.5,8.3,0.2c2.2,1.6,4.6,2.9,7.1,4.1
				c2.7,1.3,4.3,4.1,4.3,7.1v5.5c0,4.4,3.6,8,8,8h16c4.4,0,8-3.6,8-8v-5.5c0-3,1.6-5.8,4.3-7.1c2.5-1.2,4.9-2.5,7.1-4.1
				c2.4-1.7,5.7-1.7,8.3-0.2l4.7,2.7c3.8,2.2,8.7,0.9,10.9-2.9l8-13.9C157.6,309.2,156.3,304.4,152.5,302.1L152.5,302.1z M96,320
				c-17.7,0-32-14.3-32-32s14.3-32,32-32s32,14.3,32,32S113.7,320,96,320z"/>
		</g>
	</g>
</g>
</svg>
