<?xml version="1.0" encoding="utf-8"?>
<!-- Generator: Adobe Illustrator 25.0.0, SVG Export Plug-In . SVG Version: 6.00 Build 0)  -->
<svg version="1.1" id="Layer_3" xmlns="http://www.w3.org/2000/svg" xmlns:xlink="http://www.w3.org/1999/xlink" x="0px" y="0px"
	 viewBox="0 0 512 512" style="enable-background:new 0 0 512 512;" xml:space="preserve">
<style type="text/css">
	.st0{fill:#68AA38;}
</style>
<g>
	<path class="st0" d="M208,313.3c-9.8,4.3-20.6,6.7-32,6.7s-22.2-2.4-32-6.7v11.8l32,38.4l32-38.4V313.3z"/>
	<path class="st0" d="M164.3,390.8l8.6,17.2h6.1l8.6-17.2l-11.7-5.8L164.3,390.8z"/>
	<path class="st0" d="M115.1,336l17.6,52.7l30.7-15.4L132.2,336H115.1z"/>
	<path class="st0" d="M236.9,336h-17.2l-31.1,37.4l30.7,15.4L236.9,336z"/>
	<path class="st0" d="M256,240c8.8,0,16-7.2,16-16s-7.2-16-16-16V240z"/>
	<path class="st0" d="M104,184h48c12.5,0,24.5-6,32-16l9.6-12.8c3-4,9.8-4,12.8,0L216,168c7.5,10,19.5,16,32,16c4.4,0,8,3.6,8,8
		c2.8,0,5.4,0.5,8,1.1V176c0-48.5-39.5-88-88-88s-88,39.5-88,88v17.1c2.6-0.7,5.2-1.1,8-1.1C96,187.6,99.6,184,104,184z"/>
	<path class="st0" d="M264,336h-10.2l-22.2,66.5c-0.7,2.2-2.4,4-4.5,4.9c-1,0.4-2,0.6-3.1,0.6c-1.2,0-2.5-0.3-3.6-0.8l-18.4-9.2
		l-9.6,19.2l14.2,70.9H280v-48h16v48h32v-88C328,364.7,299.3,336,264,336z"/>
	<path class="st0" d="M240,199.4c-14.5-2.1-27.9-9.9-36.8-21.8l-3.2-4.3l-3.2,4.3c-10.5,14-27.3,22.4-44.8,22.4h-40v40
		c0,35.3,28.7,64,64,64s64-28.7,64-64V199.4z"/>
	<path class="st0" d="M131.6,407.2c-1.1,0.6-2.4,0.8-3.6,0.8c-1,0-2.1-0.2-3.1-0.6c-2.1-0.9-3.8-2.7-4.5-4.9L98.2,336H88
		c-35.3,0-64,28.7-64,64v88h32v-48h16v48h73.4l14.2-70.9l-9.6-19.2L131.6,407.2z"/>
	<path class="st0" d="M174.6,424l-12.8,64h28.5l-12.8-64H174.6z"/>
	<path class="st0" d="M96,240v-32c-8.8,0-16,7.2-16,16S87.2,240,96,240z"/>
	<path class="st0" d="M480,192V80h-32v112h-32v-64h-32v64h-32v-40h-32v40h-24v16h208v-16H480z"/>
	<path class="st0" d="M371.3,56H416c2.1,0,4.2-0.8,5.7-2.3L440,35.3V56h16V16c0-4.4-3.6-8-8-8h-40v16h20.7l-16,16H368
		c-2.1,0-4.2,0.8-5.7,2.3l-48,48l11.3,11.3L371.3,56z"/>
	<path class="st0" d="M354.3,226.3L260.7,320h3.3c6,0,11.8,0.7,17.4,2l82-82H504v-16H360C357.9,224,355.8,224.8,354.3,226.3z"/>
</g>
</svg>
